<svg width="81" height="80" viewBox="0 0 81 80" fill="none" xmlns="http://www.w3.org/2000/svg">
<g id="search" clip-path="url(#clip0_12_18)">
<path id="Vector" d="M78.9932 69.1719L63.415 53.5938C62.7119 52.8906 61.7588 52.5 60.7588 52.5H58.2119C62.5244 46.9844 65.0869 40.0469 65.0869 32.5C65.0869 14.5469 50.54 0 32.5869 0C14.6338 0 0.0869141 14.5469 0.0869141 32.5C0.0869141 50.4531 14.6338 65 32.5869 65C40.1338 65 47.0713 62.4375 52.5869 58.125V60.6719C52.5869 61.6719 52.9775 62.625 53.6807 63.3281L69.2588 78.9062C70.7275 80.375 73.1025 80.375 74.5557 78.9062L78.9775 74.4844C80.4463 73.0156 80.4463 70.6406 78.9932 69.1719ZM32.5869 52.5C21.54 52.5 12.5869 43.5625 12.5869 32.5C12.5869 21.4531 21.5244 12.5 32.5869 12.5C43.6338 12.5 52.5869 21.4375 52.5869 32.5C52.5869 43.5469 43.6494 52.5 32.5869 52.5Z" fill="white"/>
</g>
<defs>
<clipPath id="clip0_12_18">
<rect width="80" height="80" fill="white" transform="translate(0.0869141)"/>
</clipPath>
</defs>
</svg>
