<svg width="81" height="80" viewBox="0 0 81 80" fill="none" xmlns="http://www.w3.org/2000/svg">
<g id="wpexplorer" clip-path="url(#clip0_12_20)">
<path id="Vector" d="M80.0869 40C80.0869 62.0625 62.165 80 40.0869 80C18.0244 80 0.0869141 62.0781 0.0869141 40C0.0869141 17.9219 18.0088 0 40.0869 0C62.165 0 80.0869 17.9219 80.0869 40ZM75.0869 40C75.0869 20.75 59.415 5 40.0869 5C20.79 5 5.08691 20.7031 5.08691 40C5.08691 59.2969 20.79 75 40.0869 75C59.3838 75 75.0869 59.2969 75.0869 40ZM25.2275 19.4688L38.8057 25.2656L33.0088 38.8438L19.4307 33.0469L25.2275 19.4688ZM42.415 45.8906L49.6963 60.5781H47.415L39.6025 44.9531L31.9619 60.5781H29.7744L37.7588 43.875L34.2744 42.4062L35.2119 40.2188L45.9307 44.7656L44.9932 47L42.415 45.8906ZM40.5713 27.7188L51.29 32.3125L46.6963 42.9844L36.0244 38.4375L40.5713 27.7188ZM53.1182 34.4219L61.6494 38.0312L57.9932 46.5156L49.5088 42.9062L53.1182 34.4219Z" fill="white"/>
</g>
<defs>
<clipPath id="clip0_12_20">
<rect width="80" height="80" fill="white" transform="translate(0.0869141)"/>
</clipPath>
</defs>
</svg>
